<?xml version="1.0" encoding="utf-8"?>
<!-- Generator: Adobe Illustrator 22.1.0, SVG Export Plug-In . SVG Version: 6.00 Build 0)  -->
<svg version="1.1" id="Layer_1" xmlns="http://www.w3.org/2000/svg" xmlns:xlink="http://www.w3.org/1999/xlink" x="0px" y="0px"
	 viewBox="0 0 100 100" style="enable-background:new 0 0 100 100;" xml:space="preserve">
<style type="text/css">
	.st0{fill-rule:evenodd;clip-rule:evenodd;fill:#005A96;}
	.st1{fill:#005A96;}
	.st2{fill:#FFFFFF;}
	.st3{fill:#40528F;}
	.st4{fill:#829B49;}
	.st5{fill:none;}
	.st6{fill:#A0AA57;}
	.st7{fill:url(#SVGID_1_);}
	.st8{fill:url(#SVGID_2_);}
	.st9{fill:url(#SVGID_3_);}
	.st10{fill:#005A95;}
	.st11{fill:#8F9B49;}
</style>
<g>
	<g>
		<path class="st3" d="M8.8,28.2c4.5,0,8.1,3.6,8.1,8.1c0,4.5-3.6,8.1-8.1,8.1c-4.4,0-8.1-3.6-8.1-8.1C0.8,31.8,4.4,28.2,8.8,28.2"
			/>
		<path class="st3" d="M22.6,41.9c4.4,0,8.1,3.6,8.1,8.1s-3.6,8.1-8.1,8.1c-4.5,0-8.1-3.6-8.1-8.1C14.5,45.5,18.1,41.9,22.6,41.9"/>
		<path class="st3" d="M36.3,55.7c4.4,0,8.1,3.6,8.1,8.1c0,4.5-3.6,8.1-8.1,8.1c-4.5,0-8.1-3.6-8.1-8.1
			C28.2,59.3,31.8,55.7,36.3,55.7"/>
		<path class="st3" d="M36.3,83.1c4.4,0,8.1,3.6,8.1,8.1c0,4.4-3.6,8.1-8.1,8.1c-4.5,0-8.1-3.6-8.1-8.1
			C28.2,86.7,31.8,83.1,36.3,83.1"/>
		<path class="st3" d="M50,69.4c4.4,0,8.1,3.6,8.1,8.1c0,4.5-3.6,8.1-8.1,8.1c-4.5,0-8.1-3.6-8.1-8.1C41.9,73,45.5,69.4,50,69.4"/>
		<path class="st3" d="M63.7,55.7c4.4,0,8.1,3.6,8.1,8.1c0,4.5-3.6,8.1-8.1,8.1c-4.4,0-8.1-3.6-8.1-8.1
			C55.7,59.3,59.3,55.7,63.7,55.7"/>
	</g>
	<g>
		<path class="st11" d="M36.3,28.2c4.4,0,8.1,3.6,8.1,8.1c0,4.5-3.6,8.1-8.1,8.1c-4.5,0-8.1-3.6-8.1-8.1S31.8,28.2,36.3,28.2"/>
		<path class="st11" d="M50,14.5c4.4,0,8.1,3.6,8.1,8.1c0,4.5-3.6,8.1-8.1,8.1c-4.5,0-8.1-3.6-8.1-8.1C41.9,18.1,45.5,14.5,50,14.5"
			/>
		<path class="st11" d="M63.7,28.2c4.4,0,8.1,3.6,8.1,8.1c0,4.5-3.6,8.1-8.1,8.1c-4.4,0-8.1-3.6-8.1-8.1
			C55.7,31.8,59.3,28.2,63.7,28.2"/>
		<path class="st11" d="M77.4,41.9c4.4,0,8.1,3.6,8.1,8.1s-3.6,8.1-8.1,8.1c-4.4,0-8.1-3.6-8.1-8.1C69.4,45.5,73,41.9,77.4,41.9"/>
		<path class="st11" d="M91.2,55.7c4.5,0,8.1,3.6,8.1,8.1c0,4.5-3.6,8.1-8.1,8.1c-4.5,0-8.1-3.6-8.1-8.1
			C83.1,59.3,86.7,55.7,91.2,55.7"/>
		<path class="st11" d="M63.7,0.8c4.4,0,8.1,3.6,8.1,8.1c0,4.5-3.6,8.1-8.1,8.1c-4.4,0-8.1-3.6-8.1-8.1C55.7,4.4,59.3,0.8,63.7,0.8"
			/>
	</g>
	<g>
		<path class="st11" d="M81.2,72.8c0,1.8-1.4,3.2-3.2,3.2c-1.8,0-3.2-1.4-3.2-3.2c0-1.8,1.4-3.2,3.2-3.2
			C79.7,69.6,81.2,71,81.2,72.8z M80.6,72.8c0-1.6-1.2-2.8-2.7-2.8c-1.5,0-2.7,1.2-2.7,2.8c0,1.6,1.2,2.8,2.7,2.8
			C79.5,75.6,80.6,74.4,80.6,72.8z M77.3,74.7h-0.5v-3.8h1.5c0.9,0,1.2,0.4,1.2,1.1c0,0.7-0.4,1-0.9,1.1l1.1,1.7H79L78,73h-0.7V74.7
			z M77.9,72.6c0.5,0,1.1,0,1.1-0.6c0-0.5-0.4-0.6-0.8-0.6h-0.8v1.3H77.9z"/>
	</g>
</g>
</svg>
