<?xml version="1.0" encoding="utf-8"?>
<!-- Generator: Adobe Illustrator 21.1.0, SVG Export Plug-In . SVG Version: 6.00 Build 0)  -->
<svg version="1.1" id="Layer_1" xmlns="http://www.w3.org/2000/svg" xmlns:xlink="http://www.w3.org/1999/xlink" x="0px" y="0px"
	 viewBox="0 0 22 132" style="enable-background:new 0 0 22 132;" xml:space="preserve">
<style type="text/css">
	.st0{fill:#F5F5F5;}
	.st1{fill:#DDDDDD;}
	.st2{fill:#2A84C8;}
	.st3{fill:#FFFFFF;}
	.st4{fill:#F5B861;}
	.st5{fill:#E9E9E9;}
	.st6{fill:#B3B3B3;}
</style>
<title>inputs</title>
<path class="st0" d="M11,43.5C5.2,43.5,0.5,38.8,0.5,33S5.2,22.5,11,22.5S21.5,27.2,21.5,33C21.5,38.8,16.8,43.5,11,43.5z"/>
<path class="st1" d="M11,23c5.5,0,10,4.5,10,10s-4.5,10-10,10S1,38.5,1,33S5.5,23,11,23 M11,22C4.9,22,0,26.9,0,33s4.9,11,11,11
	s11-4.9,11-11S17.1,22,11,22z"/>
<path class="st0" d="M11,21.5C5.2,21.5,0.5,16.8,0.5,11S5.2,0.5,11,0.5S21.5,5.2,21.5,11C21.5,16.8,16.8,21.5,11,21.5z"/>
<path class="st1" d="M11,1c5.5,0,10,4.5,10,10s-4.5,10-10,10S1,16.5,1,11S5.5,1,11,1 M11,0C4.9,0,0,4.9,0,11s4.9,11,11,11
	s11-4.9,11-11S17.1,0,11,0z"/>
<circle class="st2" cx="11" cy="33" r="5"/>
<path class="st3" d="M11,87.5C5.2,87.5,0.5,82.8,0.5,77S5.2,66.5,11,66.5S21.5,71.2,21.5,77C21.5,82.8,16.8,87.5,11,87.5z"/>
<path class="st4" d="M11,67c5.5,0,10,4.5,10,10s-4.5,10-10,10S1,82.5,1,77S5.5,67,11,67 M11,66C4.9,66,0,70.9,0,77s4.9,11,11,11
	s11-4.9,11-11S17.1,66,11,66z"/>
<path class="st3" d="M11,65.5C5.2,65.5,0.5,60.8,0.5,55S5.2,44.5,11,44.5S21.5,49.2,21.5,55C21.5,60.8,16.8,65.5,11,65.5z"/>
<path class="st4" d="M11,45c5.5,0,10,4.5,10,10s-4.5,10-10,10S1,60.5,1,55S5.5,45,11,45 M11,44C4.9,44,0,48.9,0,55s4.9,11,11,11
	s11-4.9,11-11S17.1,44,11,44z"/>
<circle class="st2" cx="11" cy="77" r="5"/>
<path class="st5" d="M11,131.5c-5.8,0-10.5-4.7-10.5-10.5s4.7-10.5,10.5-10.5s10.5,4.7,10.5,10.5C21.5,126.8,16.8,131.5,11,131.5z"
	/>
<path class="st1" d="M11,111c5.5,0,10,4.5,10,10c0,5.5-4.5,10-10,10s-10-4.5-10-10C1,115.5,5.5,111,11,111 M11,110
	c-6.1,0-11,4.9-11,11s4.9,11,11,11s11-4.9,11-11S17.1,110,11,110z"/>
<path class="st5" d="M11,109.5c-5.8,0-10.5-4.7-10.5-10.5S5.2,88.5,11,88.5S21.5,93.2,21.5,99C21.5,104.8,16.8,109.5,11,109.5z"/>
<path class="st1" d="M11,89c5.5,0,10,4.5,10,10s-4.5,10-10,10S1,104.5,1,99S5.5,89,11,89 M11,88C4.9,88,0,92.9,0,99s4.9,11,11,11
	s11-4.9,11-11S17.1,88,11,88z"/>
<circle class="st6" cx="11" cy="121" r="5"/>
</svg>
