<svg id="Layer_1" data-name="Layer 1" xmlns="http://www.w3.org/2000/svg" viewBox="0 0 192.84 66.59"><defs><style>.cls-1{fill:#40528f;}.cls-2{fill:#8f9b49;}</style></defs><path class="cls-1" d="M93.16,36.59V27.23h6.75v9.36h5.55V42H99.91V58c0,1.52.76,2,2.45,2a14.7,14.7,0,0,0,3.1-.55V65a43.69,43.69,0,0,1-5.33.44c-5,0-7-2.5-7-6.53V42H89.24V36.59Z" transform="translate(-11.79 -18.89)"/><path class="cls-1" d="M107.8,69.46a13.08,13.08,0,0,0,2.83.21c2.34,0,3.64-.65,4.46-2.23a7.46,7.46,0,0,0,1.09-3.32,14.33,14.33,0,0,0-.87-3.37l-7.56-24.16h6.79L119.23,54h.1l4.85-17.41h6.74L122,64.94c-3,8.11-5.39,10.28-10.94,10.28A20.86,20.86,0,0,1,107.8,75Z" transform="translate(-11.79 -18.89)"/><rect class="cls-1" x="122" y="6.71" width="6.75" height="39.29"/><path class="cls-1" d="M162,47.25c-.11-3.91-2.18-6.2-5.44-6.2s-5.33,2.29-5.44,6.2Zm-10.88,4.57C151.27,57.7,153.88,60,157,60s4.63-1.42,6.32-3.38l4.89,3c-2.61,4-6.42,5.77-11.86,5.77-7.35,0-12-5.72-12-14.7S149,36,156.71,36c7.4,0,11.53,6.21,11.53,13v2.77Z" transform="translate(-11.79 -18.89)"/><path class="cls-1" d="M172.19,64.88V36.59h6.2v4.84h.11c1.63-3.37,3.92-5.28,8.7-5.48v7.13c-1.08,0-1.46,0-1.95,0-3.38,0-6.32,3.86-6.32,4.57V64.88Z" transform="translate(-11.79 -18.89)"/><path class="cls-1" d="M17,36.63a5.21,5.21,0,1,1-5.21,5.21A5.21,5.21,0,0,1,17,36.63" transform="translate(-11.79 -18.89)"/><path class="cls-1" d="M25.87,45.5a5.21,5.21,0,1,1-5.21,5.21,5.21,5.21,0,0,1,5.21-5.21" transform="translate(-11.79 -18.89)"/><path class="cls-1" d="M34.74,54.37a5.21,5.21,0,1,1-5.21,5.21,5.21,5.21,0,0,1,5.21-5.21" transform="translate(-11.79 -18.89)"/><path class="cls-1" d="M34.74,72.11a5.21,5.21,0,1,1-5.21,5.21,5.21,5.21,0,0,1,5.21-5.21" transform="translate(-11.79 -18.89)"/><path class="cls-1" d="M43.61,63.24a5.21,5.21,0,1,1-5.21,5.21,5.21,5.21,0,0,1,5.21-5.21" transform="translate(-11.79 -18.89)"/><path class="cls-1" d="M52.48,54.37a5.21,5.21,0,1,1-5.21,5.21,5.21,5.21,0,0,1,5.21-5.21" transform="translate(-11.79 -18.89)"/><path class="cls-2" d="M34.74,36.63a5.21,5.21,0,1,1-5.21,5.21,5.21,5.21,0,0,1,5.21-5.21" transform="translate(-11.79 -18.89)"/><path class="cls-2" d="M43.61,27.76A5.21,5.21,0,1,1,38.4,33a5.21,5.21,0,0,1,5.21-5.21" transform="translate(-11.79 -18.89)"/><path class="cls-2" d="M52.48,36.63a5.21,5.21,0,1,1-5.21,5.21,5.21,5.21,0,0,1,5.21-5.21" transform="translate(-11.79 -18.89)"/><path class="cls-2" d="M61.35,45.5a5.21,5.21,0,1,1-5.21,5.21,5.21,5.21,0,0,1,5.21-5.21" transform="translate(-11.79 -18.89)"/><path class="cls-2" d="M70.22,54.37A5.21,5.21,0,1,1,65,59.58a5.21,5.21,0,0,1,5.21-5.21" transform="translate(-11.79 -18.89)"/><path class="cls-2" d="M52.48,18.89a5.21,5.21,0,1,1-5.21,5.21,5.21,5.21,0,0,1,5.21-5.21" transform="translate(-11.79 -18.89)"/><path class="cls-2" d="M124.35,74.16V71.45h1.14v2.71h1.91v1h-1.91V81c0,.38.27.57.94.57a6.21,6.21,0,0,0,1-.08v.94a5,5,0,0,1-1.34.13c-1.24,0-1.76-.32-1.76-1.37V75.15H123v-1Z" transform="translate(-11.79 -18.89)"/><path class="cls-2" d="M133.88,77.53c0-1.52-.73-2.54-2-2.54s-2.13,1-2.22,2.54Zm1.4,3.14a3.32,3.32,0,0,1-3.18,1.92c-1.84,0-3.59-1.27-3.59-4.29,0-2.67,1.34-4.29,3.37-4.29,1.72,0,3.15,1.11,3.15,3.75v.76h-5.37c0,1.81,1.08,3.08,2.44,3.08a2.54,2.54,0,0,0,2.29-1.4Z" transform="translate(-11.79 -18.89)"/><path class="cls-2" d="M141.8,76.63a2,2,0,0,0-2-1.64c-1.41,0-2.24,1.21-2.24,3.31s.83,3.3,2.24,3.3a2.28,2.28,0,0,0,2.27-1.52l.93.41c-.83,1.4-1.56,2.1-3.2,2.1-2.06,0-3.38-1.62-3.38-4.29S137.78,74,139.84,74a3,3,0,0,1,3,2.24Z" transform="translate(-11.79 -18.89)"/><path class="cls-2" d="M145.63,71v4.32h0A3.36,3.36,0,0,1,148.11,74a2.19,2.19,0,0,1,2.38,2.41v6h-1.15v-6c0-1.09-.52-1.46-1.34-1.46a3.79,3.79,0,0,0-2.37,1.26v6.18h-1.15V71Z" transform="translate(-11.79 -18.89)"/><path class="cls-2" d="M153.67,74.16v1.12h0A3.36,3.36,0,0,1,156.15,74a2.19,2.19,0,0,1,2.38,2.41v6h-1.14v-6c0-1.09-.53-1.46-1.35-1.46a3.79,3.79,0,0,0-2.37,1.26v6.18h-1.15V74.16Z" transform="translate(-11.79 -18.89)"/><path class="cls-2" d="M163.44,75c-1.37,0-2.24,1.18-2.24,3.31s.87,3.3,2.24,3.3,2.24-1.17,2.24-3.3S164.81,75,163.44,75m0,7.6c-2.26,0-3.38-1.91-3.38-4.29S161.18,74,163.44,74s3.39,1.9,3.39,4.29-1.13,4.29-3.39,4.29" transform="translate(-11.79 -18.89)"/><rect class="cls-2" x="156.63" y="52.07" width="1.14" height="11.47"/><path class="cls-2" d="M174.53,75c-1.36,0-2.24,1.18-2.24,3.31s.88,3.3,2.24,3.3,2.24-1.17,2.24-3.3S175.9,75,174.53,75m0,7.6c-2.25,0-3.38-1.91-3.38-4.29S172.28,74,174.53,74s3.39,1.9,3.39,4.29-1.13,4.29-3.39,4.29" transform="translate(-11.79 -18.89)"/><path class="cls-2" d="M182.35,75a1.83,1.83,0,0,0-2,1.91,1.94,1.94,0,0,0,2.13,1.9,1.8,1.8,0,0,0,2-1.84,1.84,1.84,0,0,0-2.1-2m0,7.09c-1.79,0-2.3.8-2.3,1.38s.38,1,2.67,1c1.37,0,2.48-.38,2.49-1.2s-.84-1.22-2.86-1.22M186.23,75a3.22,3.22,0,0,0-1.27.22,2.79,2.79,0,0,1,.57,1.69,2.93,2.93,0,0,1-3,2.89,4.44,4.44,0,0,1-1.46-.22.77.77,0,0,0-.65.76.6.6,0,0,0,.68.61c3.91,0,5.17.69,5.17,2.32,0,1.2-1.2,2.22-3.77,2.22-2.32,0-3.56-.63-3.56-2,0-.83.51-1.23,1.4-1.69a1.32,1.32,0,0,1-1-1.17c0-.72.48-1,1.12-1.42a2.76,2.76,0,0,1-1.13-2.3A2.9,2.9,0,0,1,182.4,74a3.35,3.35,0,0,1,2,.57,3.94,3.94,0,0,1,1.78-.73Z" transform="translate(-11.79 -18.89)"/><path class="cls-2" d="M187.86,74.16H189v8.27h-1.15Zm1.15-2h-1.15V70.8H189Z" transform="translate(-11.79 -18.89)"/><path class="cls-2" d="M196,77.53c0-1.52-.73-2.54-2-2.54s-2.13,1-2.22,2.54Zm1.4,3.14a3.32,3.32,0,0,1-3.18,1.92c-1.84,0-3.59-1.27-3.59-4.29,0-2.67,1.34-4.29,3.37-4.29,1.72,0,3.15,1.11,3.15,3.75v.76h-5.37c0,1.81,1.08,3.08,2.44,3.08a2.54,2.54,0,0,0,2.29-1.4Z" transform="translate(-11.79 -18.89)"/><path class="cls-2" d="M199.34,80.33a2.78,2.78,0,0,0,2.37,1.27c1.24,0,1.78-.66,1.78-1.36,0-2.1-4.9-1-4.8-4,0-1.43,1.14-2.24,2.73-2.22a3.63,3.63,0,0,1,2.83,1.44l-.8.7A2.57,2.57,0,0,0,201.33,75c-1,0-1.5.49-1.5,1.22,0,1.8,4.8.88,4.8,4,0,1.61-1.4,2.42-2.89,2.42A4.12,4.12,0,0,1,198.43,81Z" transform="translate(-11.79 -18.89)"/><path class="cls-2" d="M63.75,65.46a2.08,2.08,0,1,1-2.08-2.08A2.09,2.09,0,0,1,63.75,65.46Zm-.33,0a1.75,1.75,0,1,0-1.75,1.81A1.75,1.75,0,0,0,63.42,65.46Zm-2.19,1.25h-.34V64.23h1c.56,0,.81.24.81.68a.66.66,0,0,1-.58.69l.7,1.11h-.39l-.67-1.11h-.48Zm.39-1.39c.32,0,.69,0,.69-.41s-.28-.4-.54-.4h-.54v.81Z" transform="translate(-11.79 -18.89)"/></svg>