<?xml version="1.0" encoding="utf-8"?>
<!-- Generator: Adobe Illustrator 26.0.3, SVG Export Plug-In . SVG Version: 6.00 Build 0)  -->
<svg version="1.1" id="Layer_1" xmlns="http://www.w3.org/2000/svg" xmlns:xlink="http://www.w3.org/1999/xlink" x="0px" y="0px"
	 viewBox="0 0 192.8 66.6" style="enable-background:new 0 0 192.8 66.6;" xml:space="preserve">
<style type="text/css">
	.st0{fill:#FFFFFF;}
</style>
<path class="st0" d="M81.4,17.7V8.3h6.8v9.4h5.6v5.4h-5.6v16c0,1.5,0.8,2,2.4,2c1.1-0.1,2.1-0.3,3.1-0.5v5.5
	c-1.8,0.3-3.5,0.4-5.3,0.4c-5,0-7-2.5-7-6.5V23.1h-3.9v-5.4H81.4z"/>
<path class="st0" d="M96,50.6c0.9,0.2,1.9,0.2,2.8,0.2c2.3,0,3.6-0.7,4.5-2.2c0.6-1,1-2.1,1.1-3.3c-0.2-1.2-0.4-2.3-0.9-3.4L96,17.7
	h6.8l4.7,17.4h0.1l4.8-17.4h6.7l-8.9,28.4c-3,8.1-5.4,10.3-10.9,10.3c-1.1,0-2.2-0.1-3.3-0.2V50.6z"/>
<rect x="122" y="6.7" class="st0" width="6.8" height="39.3"/>
<path class="st0" d="M150.2,28.4c-0.1-3.9-2.2-6.2-5.4-6.2s-5.3,2.3-5.4,6.2H150.2z M139.3,32.9c0.2,5.9,2.8,8.2,5.9,8.2
	s4.6-1.4,6.3-3.4l4.9,3c-2.6,4-6.4,5.8-11.9,5.8c-7.4,0-12-5.7-12-14.7s4.6-14.7,12.4-14.7c7.4,0,11.5,6.2,11.5,13v2.8L139.3,32.9z"
	/>
<path class="st0" d="M160.4,46V17.7h6.2v4.8h0.1c1.6-3.4,3.9-5.3,8.7-5.5v7.1c-1.1,0-1.5,0-1.9,0c-3.4,0-6.3,3.9-6.3,4.6V46H160.4z"
	/>
<path class="st0" d="M5.2,17.7c2.9,0,5.2,2.3,5.2,5.2s-2.3,5.2-5.2,5.2S0,25.8,0,23l0,0C0,20.1,2.3,17.7,5.2,17.7"/>
<path class="st0" d="M14.1,26.6c2.9,0,5.2,2.3,5.2,5.2S17,37,14.1,37s-5.2-2.3-5.2-5.2S11.2,26.6,14.1,26.6"/>
<path class="st0" d="M23,35.5c2.9,0,5.2,2.3,5.2,5.2s-2.3,5.2-5.2,5.2s-5.2-2.3-5.2-5.2l0,0C17.7,37.8,20.1,35.5,23,35.5"/>
<path class="st0" d="M23,53.2c2.9,0,5.2,2.3,5.2,5.2s-2.3,5.2-5.2,5.2s-5.2-2.3-5.2-5.2l0,0C17.7,55.6,20.1,53.2,23,53.2"/>
<path class="st0" d="M31.8,44.4c2.9,0,5.2,2.3,5.2,5.2s-2.3,5.2-5.2,5.2s-5.2-2.3-5.2-5.2S28.9,44.4,31.8,44.4"/>
<path class="st0" d="M40.7,35.5c2.9,0,5.2,2.3,5.2,5.2s-2.3,5.2-5.2,5.2s-5.2-2.3-5.2-5.2l0,0C35.5,37.8,37.8,35.5,40.7,35.5"/>
<path class="st0" d="M23,17.7c2.9,0,5.2,2.3,5.2,5.2s-2.3,5.2-5.2,5.2s-5.2-2.3-5.2-5.2l0,0C17.7,20.1,20.1,17.7,23,17.7"/>
<path class="st0" d="M31.8,8.9c2.9,0,5.2,2.3,5.2,5.2c0,2.9-2.3,5.2-5.2,5.2c-2.9,0-5.2-2.3-5.2-5.2C26.6,11.2,28.9,8.9,31.8,8.9"/>
<path class="st0" d="M40.7,17.7c2.9,0,5.2,2.3,5.2,5.2s-2.3,5.2-5.2,5.2s-5.2-2.3-5.2-5.2l0,0C35.5,20.1,37.8,17.7,40.7,17.7"/>
<path class="st0" d="M49.6,26.6c2.9,0,5.2,2.3,5.2,5.2S52.4,37,49.6,37s-5.2-2.3-5.2-5.2l0,0C44.3,28.9,46.7,26.6,49.6,26.6"/>
<path class="st0" d="M58.4,35.5c2.9,0,5.2,2.3,5.2,5.2c0,2.9-2.3,5.2-5.2,5.2c-2.9,0-5.2-2.3-5.2-5.2C53.2,37.8,55.5,35.5,58.4,35.5
	"/>
<path class="st0" d="M40.7,0c2.9,0,5.2,2.3,5.2,5.2s-2.3,5.2-5.2,5.2s-5.2-2.3-5.2-5.2l0,0C35.5,2.3,37.8,0,40.7,0"/>
<path class="st0" d="M112.6,55.3v-2.7h1.1v2.7h1.9v1h-1.9v5.8c0,0.4,0.3,0.6,0.9,0.6c0.3,0,0.7,0,1-0.1v0.9
	c-0.4,0.1-0.9,0.1-1.3,0.1c-1.2,0-1.8-0.3-1.8-1.4v-6h-1.3v-1L112.6,55.3z"/>
<path class="st0" d="M122.1,58.6c0-1.5-0.7-2.5-2-2.5s-2.1,1-2.2,2.5H122.1z M123.5,61.8c-0.6,1.2-1.8,2-3.2,1.9
	c-1.8,0-3.6-1.3-3.6-4.3c0-2.7,1.3-4.3,3.4-4.3c1.7,0,3.1,1.1,3.1,3.8v0.8h-5.4c0,1.8,1.1,3.1,2.4,3.1c1,0,1.9-0.5,2.3-1.4
	L123.5,61.8z"/>
<path class="st0" d="M130,57.7c-0.2-1-1-1.7-2-1.6c-1.4,0-2.2,1.2-2.2,3.3s0.8,3.3,2.2,3.3c1,0.1,1.9-0.6,2.3-1.5l0.9,0.4
	c-0.8,1.4-1.6,2.1-3.2,2.1c-2.1,0-3.4-1.6-3.4-4.3s1.4-4.3,3.4-4.3c1.4,0,2.6,0.9,3,2.2L130,57.7z"/>
<path class="st0" d="M133.8,52.1v4.3l0,0c0.6-0.8,1.5-1.3,2.5-1.3c1.2-0.1,2.3,0.8,2.4,2c0,0.1,0,0.3,0,0.4v6h-1.1v-6
	c0-1.1-0.5-1.5-1.3-1.5c-0.9,0.1-1.8,0.6-2.4,1.3v6.2h-1.1V52.1H133.8z"/>
<path class="st0" d="M141.9,55.3v1.1l0,0c0.6-0.8,1.5-1.2,2.5-1.3c1.2-0.1,2.3,0.8,2.4,2c0,0.1,0,0.3,0,0.4v6h-1.1v-6
	c0-1.1-0.5-1.5-1.4-1.5c-0.9,0.1-1.8,0.6-2.4,1.3v6.2h-1.1v-8.2H141.9z"/>
<path class="st0" d="M151.7,56.1c-1.4,0-2.2,1.2-2.2,3.3s0.9,3.3,2.2,3.3s2.2-1.2,2.2-3.3S153,56.1,151.7,56.1 M151.7,63.7
	c-2.3,0-3.4-1.9-3.4-4.3s1.1-4.3,3.4-4.3s3.4,1.9,3.4,4.3S153.9,63.7,151.7,63.7"/>
<rect x="156.6" y="52.1" class="st0" width="1.1" height="11.5"/>
<path class="st0" d="M162.7,56.1c-1.4,0-2.2,1.2-2.2,3.3s0.9,3.3,2.2,3.3s2.2-1.2,2.2-3.3S164.1,56.1,162.7,56.1 M162.7,63.7
	c-2.2,0-3.4-1.9-3.4-4.3s1.1-4.3,3.4-4.3s3.4,1.9,3.4,4.3S165,63.7,162.7,63.7"/>
<path class="st0" d="M170.6,56.1c-1-0.1-1.9,0.6-2,1.6c0,0.1,0,0.2,0,0.3c0,1.1,0.9,1.9,2,1.9c0.1,0,0.1,0,0.2,0
	c1,0.1,1.9-0.6,2-1.6c0-0.1,0-0.2,0-0.3c0.1-1-0.6-1.9-1.7-2C170.9,56.1,170.7,56.1,170.6,56.1 M170.6,63.2c-1.8,0-2.3,0.8-2.3,1.4
	s0.4,1,2.7,1c1.4,0,2.5-0.4,2.5-1.2S172.6,63.1,170.6,63.2 M174.4,56.1c-0.4,0-0.9,0.1-1.3,0.2c0.4,0.5,0.6,1.1,0.6,1.7
	c0,1.6-1.4,2.9-3,2.9c0,0,0,0,0,0c-0.5,0-1-0.1-1.5-0.2c-0.4,0.1-0.6,0.4-0.6,0.8c0,0.3,0.3,0.6,0.6,0.6c0,0,0.1,0,0.1,0
	c3.9,0,5.2,0.7,5.2,2.3c0,1.2-1.2,2.2-3.8,2.2c-2.3,0-3.6-0.6-3.6-2c0-0.8,0.5-1.2,1.4-1.7c-0.5-0.1-1-0.6-1-1.2
	c0-0.7,0.5-1,1.1-1.4c-0.7-0.5-1.2-1.4-1.1-2.3c0-1.6,1.3-2.9,2.9-2.9c0.1,0,0.1,0,0.2,0c0.7,0,1.4,0.2,2,0.6
	c0.5-0.4,1.1-0.6,1.8-0.7L174.4,56.1z"/>
<path class="st0" d="M176.1,55.3h1.1v8.3h-1.1L176.1,55.3z M177.2,53.3h-1.1v-1.4h1.1L177.2,53.3z"/>
<path class="st0" d="M184.2,58.6c0-1.5-0.7-2.5-2-2.5s-2.1,1-2.2,2.5H184.2z M185.6,61.8c-0.6,1.2-1.8,2-3.2,1.9
	c-1.8,0-3.6-1.3-3.6-4.3c0-2.7,1.3-4.3,3.4-4.3c1.7,0,3.1,1.1,3.1,3.8v0.8H180c0,1.8,1.1,3.1,2.4,3.1c1,0,1.9-0.5,2.3-1.4
	L185.6,61.8z"/>
<path class="st0" d="M187.6,61.4c0.5,0.8,1.4,1.3,2.4,1.3c1.2,0,1.8-0.7,1.8-1.4c0-2.1-4.9-1-4.8-4c0-1.4,1.1-2.2,2.7-2.2
	c1.1,0,2.2,0.6,2.8,1.4l-0.8,0.7c-0.5-0.7-1.3-1.2-2.1-1.2c-1,0-1.5,0.5-1.5,1.2c0,1.8,4.8,0.9,4.8,4c0,1.6-1.4,2.4-2.9,2.4
	c-1.3,0-2.5-0.6-3.3-1.6L187.6,61.4z"/>
<path class="st0" d="M52,46.6c0,1.1-0.9,2.1-2.1,2.1c-1.1,0-2.1-0.9-2.1-2.1c0-1.1,0.9-2.1,2.1-2.1C51,44.5,52,45.4,52,46.6z
	 M51.6,46.6c0-1-0.8-1.7-1.8-1.7c-1,0-1.7,0.8-1.7,1.8c0,0.9,0.8,1.7,1.7,1.7C50.8,48.4,51.6,47.6,51.6,46.6
	C51.6,46.6,51.6,46.6,51.6,46.6z M49.4,47.8h-0.3v-2.5h1c0.6,0,0.8,0.2,0.8,0.7c0,0.3-0.2,0.6-0.6,0.7l0.7,1.1h-0.4L50,46.7h-0.5
	L49.4,47.8z M49.8,46.4c0.3,0,0.7,0,0.7-0.4s-0.3-0.4-0.5-0.4h-0.5v0.8L49.8,46.4z"/>
</svg>
