<svg xmlns="http://www.w3.org/2000/svg" width="29.84" height="29.81" viewBox="0 0 29.84 29.81">
  <g id="Tyler-Talking-Ts" transform="translate(-0.7 -0.8)">
    <g id="Group_2993" data-name="Group 2993" transform="translate(0.7 9.092)">
      <path id="Path_145" data-name="Path 145" d="M3.151,28.2A2.451,2.451,0,1,1,.7,30.651,2.48,2.48,0,0,1,3.151,28.2" transform="translate(-0.7 -28.2)" fill="#fff"/>
      <path id="Path_146" data-name="Path 146" d="M16.951,41.9A2.451,2.451,0,1,1,14.5,44.351,2.46,2.46,0,0,1,16.951,41.9" transform="translate(-10.324 -37.754)" fill="#fff"/>
      <path id="Path_147" data-name="Path 147" d="M30.651,55.7A2.451,2.451,0,1,1,28.2,58.151,2.46,2.46,0,0,1,30.651,55.7" transform="translate(-19.877 -47.377)" fill="#fff"/>
      <path id="Path_148" data-name="Path 148" d="M30.651,83.1A2.451,2.451,0,1,1,28.2,85.551,2.46,2.46,0,0,1,30.651,83.1" transform="translate(-19.877 -66.485)" fill="#fff"/>
      <path id="Path_149" data-name="Path 149" d="M44.351,69.4A2.451,2.451,0,1,1,41.9,71.851,2.46,2.46,0,0,1,44.351,69.4" transform="translate(-29.431 -56.931)" fill="#fff"/>
      <path id="Path_150" data-name="Path 150" d="M58.051,55.7A2.451,2.451,0,1,1,55.6,58.151,2.46,2.46,0,0,1,58.051,55.7" transform="translate(-38.985 -47.377)" fill="#fff"/>
    </g>
    <g id="Group_2994" data-name="Group 2994" transform="translate(9.023 0.8)">
      <path id="Path_151" data-name="Path 151" d="M30.651,28.2A2.451,2.451,0,1,1,28.2,30.651,2.46,2.46,0,0,1,30.651,28.2" transform="translate(-28.2 -19.908)" fill="#fff"/>
      <path id="Path_152" data-name="Path 152" d="M44.351,14.5A2.451,2.451,0,1,1,41.9,16.951,2.46,2.46,0,0,1,44.351,14.5" transform="translate(-37.754 -10.354)" fill="#fff"/>
      <path id="Path_153" data-name="Path 153" d="M58.051,28.2A2.451,2.451,0,1,1,55.6,30.651,2.46,2.46,0,0,1,58.051,28.2" transform="translate(-47.308 -19.908)" fill="#fff"/>
      <path id="Path_154" data-name="Path 154" d="M71.751,41.9A2.451,2.451,0,1,1,69.3,44.351,2.461,2.461,0,0,1,71.751,41.9" transform="translate(-56.862 -29.462)" fill="#fff"/>
      <path id="Path_155" data-name="Path 155" d="M85.551,55.7A2.451,2.451,0,1,1,83.1,58.151,2.441,2.441,0,0,1,85.551,55.7" transform="translate(-66.485 -39.085)" fill="#fff"/>
      <path id="Path_156" data-name="Path 156" d="M58.051.8A2.451,2.451,0,1,1,55.6,3.251,2.46,2.46,0,0,1,58.051.8" transform="translate(-47.308 -0.8)" fill="#fff"/>
    </g>
    <g id="Group_2995" data-name="Group 2995" transform="translate(23.125 21.621)">
      <path id="Path_157" data-name="Path 157" d="M76.737,70.568a.968.968,0,1,1-.968-.968A.975.975,0,0,1,76.737,70.568Zm-.182,0a.818.818,0,1,0-.817.847A.8.8,0,0,0,76.555,70.568Zm-1,.575h-.151v-1.15h.454c.272,0,.363.121.363.333a.308.308,0,0,1-.272.333l.333.514h-.212l-.3-.545h-.212Zm.182-.636c.151,0,.333,0,.333-.182,0-.151-.121-.182-.242-.182h-.242v.393h.151Z" transform="translate(-74.8 -69.6)" fill="#fff"/>
    </g>
  </g>
</svg>
